<?xml version="1.0" encoding="utf-8"?>
<svg xmlns="http://www.w3.org/2000/svg" width="779" height="323" viewBox="0 0 779 323" fill="none">
    <path fill-rule="evenodd" clip-rule="evenodd" d="M658.865 4.38253C674.565 12.2118 686.774 21.1099 698.987 33.6252C717.948 53.0558 731.165 76.7523 737.628 102.908C741.076 116.857 741.847 123.228 741.817 137.521C741.789 151.039 741.118 156.722 738.178 168.317C726.599 213.979 692.116 248.412 646.996 259.365C634.876 262.307 627.038 263.193 613.193 263.19C586.35 263.181 568.065 258.153 539.544 242.934C511.055 227.732 478.905 202.56 440.222 165.17L431.827 157.055L438.781 148.497C466.639 114.214 488.09 93.4754 511.893 77.8119C527.11 67.798 542.758 61.7671 563.303 57.9981C572.195 56.3666 588.558 55.7808 597.396 56.777C648.768 62.5698 685.484 97.095 688.57 142.513C690.319 168.265 681.785 194.69 664.705 216.406C657.569 225.48 644.712 237.291 635.832 242.93C634.063 244.054 632.723 245.079 632.853 245.208C633.351 245.702 646.036 240.954 652.436 237.878C663.749 232.441 672.497 226.305 682.164 217.027C699.79 200.11 711.311 179.403 716.473 155.366C717.985 148.323 718.099 146.746 718.11 132.685C718.121 118.427 718.026 117.128 716.431 109.714C711.221 85.4919 699.997 64.6063 683.152 47.7907C672.024 36.6827 661.005 28.964 645.135 21.1607C625.616 11.5638 606.086 6.56351 584.021 5.51291C558.457 4.29608 533.681 8.19623 508.886 17.3415C499.53 20.7925 481.57 29.5848 473.05 34.8855C448.366 50.2419 421.614 74.6595 394.518 106.567L387.951 114.301L382.386 108.985C339.022 67.5629 300.78 39.9427 263.88 23.3966C209.618 -0.93394 153.919 -3.81371 106.385 15.2542C89.216 22.1417 75.8711 29.9003 61.3495 41.4388C9.63558 82.5281 -11.7611 148.461 6.33251 210.966C10.2738 224.58 18.3803 242.566 25.8121 254.187C48.055 288.963 81.3626 313.488 116.8 321.18C129.324 323.898 129.368 323.866 119.767 319.056C96.4391 307.37 77.0861 290.478 62.7251 269.266C49.8748 250.286 41.4647 228.766 37.9335 205.828C28.8286 146.685 62.2773 88.9635 117.641 68.2816C142.746 58.903 171.695 57.5332 200.446 64.3627C216.966 68.2864 244.684 82.1908 266.702 97.5992C294.614 117.133 314.215 134.393 365.428 184.538C401.474 219.832 414.427 231.879 432.261 246.691C478.928 285.451 521.523 307.732 566.041 316.669C597.356 322.956 630.065 321.69 658.211 313.103C709.071 297.585 750.501 259.895 768.282 212.969C772.982 200.565 776.856 183.984 777.929 171.675L778.377 166.536L778.771 171.372C778.988 174.032 779.064 170.087 778.941 162.607C778.411 130.268 773.453 108.937 760.466 83.1169C739.061 40.558 700.979 10.0411 658.649 1.52513C654.478 0.686703 650.843 0 650.571 0C650.299 0 654.031 1.97184 658.865 4.38253ZM140.457 79.7475C106.584 91.1693 79.8556 117.042 67.2213 150.637C62.3667 163.546 60.174 175.932 60.157 190.544C60.0973 241.486 91.3138 285.454 142.586 306.644C197.22 329.223 266.916 318.279 319.86 278.809C339.656 264.052 353.574 251.069 375.78 226.647L378.286 223.892L365.692 211.534C358.764 204.737 348.97 195.148 343.926 190.224L334.755 181.272L327.138 190.225C306.242 214.783 286.802 232.542 265.564 246.471C250.2 256.549 228.687 264.047 207.777 266.612C199.531 267.624 180.447 267.002 172.398 265.46C149.296 261.032 130.926 251.695 115.777 236.678C102.792 223.808 95.5222 210.687 91.4769 192.82C90.8076 189.864 90.3446 184.319 90.1402 176.812C89.8731 167.008 90.01 164.265 91.0777 158.073C95.1577 134.409 105.812 114.275 123.725 96.3799C129.902 90.2087 133.557 87.2117 145.02 78.9133C146.7 77.6971 146.345 77.7618 140.457 79.7475ZM0.161989 166.536C0.161381 172.188 0.252642 174.582 0.365199 171.855C0.477755 169.129 0.478364 164.504 0.366416 161.579C0.255076 158.654 0.162597 160.884 0.161989 166.536Z" fill="black"/>
    </svg>