<svg xmlns="http://www.w3.org/2000/svg" viewBox="0 0 512 214">
  <path fill="#635BFF" d="M512 110.08c0-36.41-17.64-65.14-51.38-65.14-33.85 0-54.44 28.73-54.44 64.84 0 42.81 24.21 64.37 59.01 64.37 16.97 0 29.76-3.87 39.44-9.31v-28.44c-9.68 4.84-20.79 7.81-34.85 7.81-13.79 0-26.04-4.84-27.6-21.62h69.52c0-1.85.3-9.22.3-12.51zm-70.33-13.49c0-16.05 9.82-22.73 18.78-22.73 8.67 0 17.94 6.69 17.94 22.73h-36.72zM359.59 44.94c-13.94 0-22.91 6.54-27.89 11.1l-1.85-8.79h-31.16v166.15l35.41-7.51.15-40.33c5.14 3.72 12.69 8.93 25.19 8.93 25.49 0 48.72-20.49 48.72-65.58-.15-41.26-23.68-64.12-48.57-63.97zm-8.52 98.68c-8.37 0-13.35-2.99-16.78-6.69l-.15-52.74c3.72-4.12 8.82-6.98 16.93-6.98 12.95 0 21.91 14.53 21.91 33.12 0 19.03-8.82 33.29-21.91 33.29zm-103.32-108.49l35.56-7.65V0l-35.56 7.51v27.62zM247.75 47.1h35.56v126.54h-35.56V47.1zM197.16 59.08l-2.25-11.98h-30.54v126.54h35.41V86.51c8.37-10.94 22.58-8.93 26.96-7.37V47.1c-4.53-1.71-21.16-4.84-29.58 11.98zM131.51 11.82l-34.59 7.37-.15 115.83c0 21.4 16.05 37.15 37.45 37.15 11.84 0 20.51-2.18 25.34-4.77v-28.88c-4.68 1.85-27.75 8.52-27.75-12.81V75.15h27.75V47.1h-27.75l-.3-35.28zM37.45 79.72c0-5.56 4.53-7.67 12.06-7.67 10.79 0 24.43 3.28 35.22 9.09V48.22c-11.79-4.69-23.43-6.54-35.22-6.54C19.95 41.68 0 57.14 0 82.86c0 39.76 54.74 33.42 54.74 50.54 0 6.54-5.72 8.67-13.64 8.67-11.84 0-26.96-4.84-38.95-11.4v33.27c13.2 5.72 26.55 8.08 38.95 8.08 31.01 0 52.34-15.31 52.34-41.58.15-42.95-55.03-35.29-55.03-51.42.15-.14.04-.3.04-.3z"/>
</svg>
